<svg width="379" height="258" viewBox="0 0 379 258" fill="none" xmlns="http://www.w3.org/2000/svg">
<path d="M146.84 30.9999L156.512 11.8603V11.7008H145.245V7.66784H161.616V11.7578L151.932 30.9999H146.84ZM172.603 31.3189C170.993 31.3189 169.558 31.0227 168.297 30.4303C167.044 29.8379 166.049 29.0214 165.312 27.9809C164.575 26.9404 164.192 25.7479 164.162 24.4036H168.946C169 25.3074 169.379 26.0403 170.086 26.6024C170.792 27.1644 171.631 27.4454 172.603 27.4454C173.378 27.4454 174.062 27.2746 174.654 26.9328C175.254 26.5834 175.721 26.1011 176.055 25.4859C176.397 24.8631 176.568 24.1492 176.568 23.3441C176.568 22.5238 176.393 21.8023 176.044 21.1795C175.702 20.5567 175.228 20.0706 174.62 19.7212C174.012 19.3719 173.317 19.1934 172.535 19.1858C171.852 19.1858 171.187 19.3263 170.541 19.6073C169.903 19.8883 169.406 20.2719 169.049 20.758L164.663 19.9719L165.768 7.66784H180.031V11.7008H169.835L169.231 17.5452H169.368C169.778 16.968 170.397 16.4895 171.225 16.1098C172.053 15.73 172.979 15.5401 174.005 15.5401C175.41 15.5401 176.663 15.8705 177.764 16.5313C178.866 17.1921 179.735 18.0997 180.373 19.2541C181.011 20.401 181.326 21.7225 181.319 23.2188C181.326 24.791 180.962 26.1885 180.225 27.4113C179.496 28.6265 178.474 29.5835 177.161 30.2822C175.854 30.9734 174.335 31.3189 172.603 31.3189ZM193.306 31.5126C191.347 31.505 189.661 31.0227 188.248 30.0657C186.843 29.1088 185.76 27.7227 185.001 25.9074C184.249 24.0922 183.877 21.9086 183.884 19.3567C183.884 16.8123 184.26 14.6439 185.012 12.8515C185.772 11.059 186.854 9.69573 188.259 8.76154C189.672 7.81975 191.354 7.34885 193.306 7.34885C195.258 7.34885 196.937 7.81975 198.342 8.76154C199.754 9.70333 200.84 11.0704 201.6 12.8629C202.359 14.6477 202.735 16.8123 202.728 19.3567C202.728 21.9162 202.348 24.1036 201.589 25.9188C200.837 27.7341 199.758 29.1202 198.353 30.0771C196.948 31.0341 195.266 31.5126 193.306 31.5126ZM193.306 27.4227C194.643 27.4227 195.71 26.7505 196.507 25.4062C197.305 24.0618 197.7 22.0453 197.692 19.3567C197.692 17.587 197.51 16.1136 197.145 14.9363C196.788 13.7591 196.28 12.8743 195.619 12.2819C194.966 11.6894 194.195 11.3932 193.306 11.3932C191.977 11.3932 190.914 12.0578 190.116 13.3869C189.319 14.7161 188.916 16.706 188.909 19.3567C188.909 21.1491 189.087 22.6453 189.444 23.8454C189.809 25.0378 190.321 25.934 190.982 26.534C191.643 27.1264 192.418 27.4227 193.306 27.4227ZM207.586 31.2961C206.834 31.2961 206.189 31.0303 205.649 30.4987C205.118 29.9594 204.852 29.3138 204.852 28.5619C204.852 27.8176 205.118 27.1796 205.649 26.648C206.189 26.1163 206.834 25.8505 207.586 25.8505C208.315 25.8505 208.953 26.1163 209.5 26.648C210.047 27.1796 210.32 27.8176 210.32 28.5619C210.32 29.0632 210.191 29.5227 209.933 29.9404C209.682 30.3506 209.352 30.6809 208.942 30.9316C208.532 31.1746 208.08 31.2961 207.586 31.2961ZM213.305 26.8986V23.0137L223.045 7.66784H226.395V13.0452H224.413L218.272 22.7631V22.9454H232.114V26.8986H213.305ZM224.504 30.9999V25.7138L224.595 23.9935V7.66784H229.22V30.9999H224.504ZM243.754 31.3189C242.554 31.3113 241.396 31.1101 240.279 30.7151C239.17 30.3202 238.175 29.6784 237.294 28.7898C236.413 27.9011 235.714 26.7239 235.198 25.2581C234.689 23.7922 234.435 21.9922 234.435 19.858C234.442 17.8984 234.666 16.1478 235.107 14.606C235.555 13.0566 236.193 11.7426 237.021 10.6641C237.856 9.5856 238.855 8.76533 240.017 8.2033C241.179 7.63366 242.482 7.34885 243.925 7.34885C245.482 7.34885 246.856 7.65265 248.049 8.26026C249.241 8.86027 250.198 9.67674 250.92 10.7097C251.649 11.7426 252.089 12.9009 252.241 14.1844H247.377C247.187 13.3718 246.788 12.7338 246.18 12.2705C245.573 11.8072 244.821 11.5755 243.925 11.5755C242.406 11.5755 241.251 12.2363 240.461 13.5578C239.679 14.8794 239.28 16.6756 239.265 18.9465H239.425C239.774 18.2554 240.245 17.6668 240.837 17.1807C241.437 16.687 242.117 16.311 242.877 16.0528C243.644 15.787 244.453 15.6541 245.303 15.6541C246.686 15.6541 247.916 15.9807 248.994 16.6338C250.073 17.2794 250.924 18.168 251.546 19.2997C252.169 20.4314 252.481 21.7263 252.481 23.1846C252.481 24.7644 252.112 26.1695 251.375 27.3999C250.646 28.6303 249.625 29.5948 248.311 30.2936C247.005 30.9847 245.486 31.3265 243.754 31.3189ZM243.731 27.4454C244.491 27.4454 245.17 27.2632 245.77 26.8986C246.37 26.534 246.841 26.0403 247.183 25.4176C247.525 24.7948 247.696 24.096 247.696 23.3213C247.696 22.5466 247.525 21.8517 247.183 21.2365C246.849 20.6213 246.386 20.1314 245.793 19.7668C245.201 19.4022 244.525 19.22 243.765 19.22C243.196 19.22 242.668 19.3263 242.182 19.539C241.703 19.7516 241.282 20.0478 240.917 20.4276C240.56 20.8073 240.279 21.2479 240.074 21.7491C239.869 22.2428 239.766 22.7707 239.766 23.3327C239.766 24.0846 239.937 24.772 240.279 25.3948C240.628 26.0176 241.099 26.515 241.692 26.8872C242.292 27.2594 242.972 27.4454 243.731 27.4454Z" fill="#111111"/>
<path d="M136.005 19.8021C136.005 16.7944 133.483 16.0052 131.189 15.4506V11.8243C132.222 11.9523 133.297 12.3149 134.352 12.9335L135.385 10.3098C134.248 9.56326 132.739 9.13664 131.189 9.00866V6.68359H129.122V9.05132C125.856 9.43528 124.264 11.3764 124.264 13.6375C124.264 16.6878 126.827 17.477 129.122 18.0529V21.6152C127.633 21.4659 126.145 20.89 125.112 20.1007L123.975 22.7031C125.112 23.6203 127.075 24.2816 129.122 24.4095V26.7346H131.189V24.3456C134.434 23.9403 136.005 22.0205 136.005 19.8021ZM127.592 13.4668C127.592 12.7629 128.026 12.1443 129.122 11.8883V14.9173C128.212 14.6187 127.592 14.2134 127.592 13.4668ZM131.189 21.5299V18.5862C132.078 18.9062 132.677 19.3115 132.677 20.0581C132.677 20.7406 132.222 21.2952 131.189 21.5299Z" fill="#111111"/>
<path d="M27.5821 238.455V245H26.7895V239.286H26.7511L25.1531 240.347V239.541L26.7895 238.455H27.5821ZM29.3112 243.658V243.006L32.1876 238.455H32.6606V239.464H32.341L30.1677 242.903V242.955H34.0413V243.658H29.3112ZM32.3921 245V243.46V243.156V238.455H33.1464V245H32.3921ZM21.0542 249.455H22.0003L24.2247 254.888H24.3014L26.5258 249.455H27.4718V256H26.7304V251.027H26.6664L24.621 256H23.9051L21.8596 251.027H21.7957V256H21.0542V249.455ZM30.9531 256.102C30.5099 256.102 30.1211 255.997 29.7866 255.786C29.4542 255.575 29.1942 255.28 29.0067 254.901C28.8214 254.521 28.7287 254.078 28.7287 253.571C28.7287 253.06 28.8214 252.613 29.0067 252.232C29.1942 251.85 29.4542 251.554 29.7866 251.343C30.1211 251.132 30.5099 251.027 30.9531 251.027C31.3963 251.027 31.7841 251.132 32.1165 251.343C32.451 251.554 32.7109 251.85 32.8963 252.232C33.0838 252.613 33.1775 253.06 33.1775 253.571C33.1775 254.078 33.0838 254.521 32.8963 254.901C32.7109 255.28 32.451 255.575 32.1165 255.786C31.7841 255.997 31.3963 256.102 30.9531 256.102ZM30.9531 255.425C31.2898 255.425 31.5667 255.338 31.7841 255.166C32.0014 254.993 32.1623 254.766 32.2667 254.485C32.3711 254.204 32.4233 253.899 32.4233 253.571C32.4233 253.243 32.3711 252.937 32.2667 252.654C32.1623 252.37 32.0014 252.141 31.7841 251.967C31.5667 251.792 31.2898 251.705 30.9531 251.705C30.6165 251.705 30.3395 251.792 30.1221 251.967C29.9048 252.141 29.7439 252.37 29.6395 252.654C29.5351 252.937 29.4829 253.243 29.4829 253.571C29.4829 253.899 29.5351 254.204 29.6395 254.485C29.7439 254.766 29.9048 254.993 30.1221 255.166C30.3395 255.338 30.6165 255.425 30.9531 255.425ZM35.0832 253.047V256H34.3289V251.091H35.0576V251.858H35.1215C35.2366 251.609 35.4113 251.408 35.6457 251.257C35.88 251.104 36.1826 251.027 36.5533 251.027C36.8857 251.027 37.1766 251.095 37.4259 251.232C37.6751 251.366 37.869 251.57 38.0075 251.845C38.146 252.118 38.2153 252.463 38.2153 252.881V256H37.461V252.932C37.461 252.546 37.3609 252.246 37.1606 252.031C36.9603 251.813 36.6854 251.705 36.336 251.705C36.0952 251.705 35.88 251.757 35.6904 251.861C35.5029 251.966 35.3548 252.118 35.2462 252.318C35.1375 252.518 35.0832 252.761 35.0832 253.047Z" fill="#848484"/>
<path d="M85.7363 238.455V245H84.9437V239.286H84.9053L83.3073 240.347V239.541L84.9437 238.455H85.7363ZM89.6642 245.089C89.2892 245.089 88.9515 245.015 88.6511 244.866C88.3506 244.717 88.1099 244.512 87.9288 244.252C87.7476 243.992 87.6486 243.696 87.6315 243.364H88.3986C88.4284 243.66 88.5626 243.905 88.8013 244.099C89.042 244.29 89.3297 244.386 89.6642 244.386C89.9327 244.386 90.1713 244.324 90.3801 244.198C90.591 244.072 90.7562 243.9 90.8755 243.68C90.9969 243.458 91.0577 243.208 91.0577 242.929C91.0577 242.643 90.9948 242.389 90.8691 242.165C90.7455 241.939 90.5751 241.761 90.3577 241.631C90.1404 241.501 89.8922 241.435 89.6131 241.433C89.4128 241.431 89.2072 241.462 88.9962 241.526C88.7853 241.588 88.6116 241.668 88.4753 241.766L87.7338 241.676L88.1301 238.455H91.5307V239.158H88.7949L88.5648 241.088H88.6031C88.7373 240.982 88.9057 240.893 89.1081 240.823C89.3105 240.752 89.5214 240.717 89.7409 240.717C90.1415 240.717 90.4984 240.813 90.8116 241.005C91.1269 241.195 91.3741 241.455 91.553 241.785C91.7342 242.115 91.8247 242.492 91.8247 242.916C91.8247 243.334 91.731 243.707 91.5435 244.035C91.3581 244.361 91.1024 244.619 90.7764 244.808C90.4504 244.996 90.0797 245.089 89.6642 245.089ZM80.2347 250.158V249.455H85.1438V250.158H83.0856V256H82.293V250.158H80.2347ZM88.6906 253.993V251.091H89.4449V256H88.6906V255.169H88.6395C88.5244 255.418 88.3454 255.63 88.1025 255.805C87.8596 255.978 87.5528 256.064 87.1821 256.064C86.8753 256.064 86.6025 255.997 86.3639 255.863C86.1253 255.726 85.9378 255.522 85.8014 255.249C85.665 254.974 85.5969 254.628 85.5969 254.21V251.091H86.3511V254.159C86.3511 254.517 86.4513 254.803 86.6515 255.016C86.854 255.229 87.1118 255.335 87.425 255.335C87.6125 255.335 87.8032 255.287 87.9971 255.191C88.1931 255.096 88.3572 254.949 88.4893 254.75C88.6235 254.552 88.6906 254.3 88.6906 253.993ZM92.8846 256.102C92.4116 256.102 92.0035 255.998 91.6605 255.789C91.3196 255.578 91.0565 255.284 90.8711 254.907C90.6879 254.528 90.5962 254.087 90.5962 253.584C90.5962 253.081 90.6879 252.638 90.8711 252.254C91.0565 251.869 91.3143 251.568 91.6445 251.353C91.9769 251.136 92.3647 251.027 92.8079 251.027C93.0636 251.027 93.3161 251.07 93.5653 251.155C93.8146 251.24 94.0415 251.379 94.2461 251.57C94.4506 251.76 94.6136 252.011 94.7351 252.325C94.8565 252.638 94.9173 253.023 94.9173 253.482V253.801H91.1332V253.149H94.1502C94.1502 252.872 94.0948 252.625 93.984 252.408C93.8754 252.19 93.7198 252.019 93.5174 251.893C93.3171 251.767 93.0806 251.705 92.8079 251.705C92.5075 251.705 92.2475 251.779 92.0281 251.928C91.8107 252.075 91.6435 252.267 91.5263 252.504C91.4091 252.74 91.3505 252.994 91.3505 253.264V253.699C91.3505 254.07 91.4144 254.384 91.5423 254.642C91.6722 254.897 91.8523 255.092 92.0824 255.227C92.3125 255.359 92.5799 255.425 92.8846 255.425C93.0827 255.425 93.2617 255.397 93.4215 255.342C93.5835 255.284 93.723 255.199 93.8402 255.086C93.9574 254.971 94.0479 254.828 94.1119 254.658L94.8406 254.862C94.7638 255.109 94.6349 255.327 94.4538 255.514C94.2727 255.7 94.049 255.844 93.7827 255.949C93.5163 256.051 93.217 256.102 92.8846 256.102Z" fill="#848484"/>
<path d="M144.831 238.455V245H144.038V239.286H144L142.402 240.347V239.541L144.038 238.455H144.831ZM148.886 245.089C148.618 245.085 148.349 245.034 148.081 244.936C147.813 244.838 147.568 244.673 147.346 244.441C147.124 244.206 146.946 243.89 146.812 243.491C146.678 243.091 146.611 242.588 146.611 241.983C146.611 241.403 146.665 240.89 146.774 240.442C146.882 239.993 147.04 239.615 147.247 239.308C147.454 238.999 147.703 238.765 147.995 238.605C148.289 238.445 148.62 238.365 148.989 238.365C149.355 238.365 149.681 238.439 149.967 238.586C150.254 238.73 150.489 238.933 150.67 239.193C150.851 239.453 150.968 239.752 151.021 240.091H150.242C150.169 239.797 150.028 239.553 149.82 239.359C149.611 239.165 149.334 239.068 148.989 239.068C148.482 239.068 148.082 239.289 147.79 239.73C147.5 240.171 147.354 240.79 147.352 241.587H147.403C147.523 241.406 147.664 241.251 147.829 241.123C147.995 240.993 148.178 240.893 148.378 240.823C148.579 240.752 148.791 240.717 149.014 240.717C149.389 240.717 149.732 240.811 150.043 240.999C150.354 241.184 150.604 241.441 150.791 241.769C150.979 242.095 151.072 242.469 151.072 242.891C151.072 243.295 150.982 243.666 150.801 244.003C150.62 244.337 150.365 244.604 150.037 244.802C149.711 244.998 149.327 245.094 148.886 245.089ZM148.886 244.386C149.155 244.386 149.396 244.319 149.609 244.185C149.824 244.051 149.993 243.871 150.117 243.645C150.243 243.419 150.305 243.168 150.305 242.891C150.305 242.62 150.245 242.374 150.123 242.152C150.004 241.929 149.839 241.751 149.628 241.619C149.419 241.487 149.18 241.42 148.912 241.42C148.71 241.42 148.521 241.461 148.346 241.542C148.172 241.621 148.018 241.729 147.886 241.868C147.756 242.006 147.654 242.165 147.579 242.344C147.505 242.521 147.467 242.707 147.467 242.903C147.467 243.163 147.528 243.406 147.65 243.632C147.773 243.858 147.941 244.04 148.155 244.179C148.37 244.317 148.614 244.386 148.886 244.386ZM139.276 256L137.487 249.455H138.292L139.66 254.786H139.724L141.117 249.455H142.012L143.406 254.786H143.47L144.837 249.455H145.643L143.853 256H143.035L141.59 250.784H141.539L140.095 256H139.276ZM148.129 256.102C147.656 256.102 147.248 255.998 146.905 255.789C146.564 255.578 146.301 255.284 146.116 254.907C145.933 254.528 145.841 254.087 145.841 253.584C145.841 253.081 145.933 252.638 146.116 252.254C146.301 251.869 146.559 251.568 146.889 251.353C147.222 251.136 147.609 251.027 148.053 251.027C148.308 251.027 148.561 251.07 148.81 251.155C149.059 251.24 149.286 251.379 149.491 251.57C149.695 251.76 149.858 252.011 149.98 252.325C150.101 252.638 150.162 253.023 150.162 253.482V253.801H146.378V253.149H149.395C149.395 252.872 149.34 252.625 149.229 252.408C149.12 252.19 148.965 252.019 148.762 251.893C148.562 251.767 148.325 251.705 148.053 251.705C147.752 251.705 147.492 251.779 147.273 251.928C147.055 252.075 146.888 252.267 146.771 252.504C146.654 252.74 146.595 252.994 146.595 253.264V253.699C146.595 254.07 146.659 254.384 146.787 254.642C146.917 254.897 147.097 255.092 147.327 255.227C147.557 255.359 147.825 255.425 148.129 255.425C148.327 255.425 148.506 255.397 148.666 255.342C148.828 255.284 148.968 255.199 149.085 255.086C149.202 254.971 149.293 254.828 149.357 254.658L150.085 254.862C150.009 255.109 149.88 255.327 149.699 255.514C149.517 255.7 149.294 255.844 149.027 255.949C148.761 256.051 148.462 256.102 148.129 256.102ZM153.163 256.102C152.754 256.102 152.393 255.999 152.08 255.792C151.766 255.583 151.521 255.289 151.345 254.91C151.168 254.529 151.079 254.078 151.079 253.558C151.079 253.043 151.168 252.595 151.345 252.216C151.521 251.837 151.767 251.544 152.083 251.337C152.398 251.13 152.763 251.027 153.176 251.027C153.495 251.027 153.748 251.08 153.933 251.187C154.121 251.291 154.264 251.411 154.362 251.545C154.462 251.677 154.539 251.786 154.595 251.871H154.659V249.455H155.413V256H154.684V255.246H154.595C154.539 255.335 154.461 255.448 154.358 255.585C154.256 255.719 154.11 255.839 153.921 255.946C153.731 256.05 153.478 256.102 153.163 256.102ZM153.265 255.425C153.568 255.425 153.824 255.346 154.032 255.188C154.241 255.028 154.4 254.808 154.509 254.527C154.617 254.243 154.672 253.916 154.672 253.545C154.672 253.179 154.618 252.858 154.512 252.583C154.405 252.306 154.248 252.091 154.039 251.938C153.83 251.782 153.572 251.705 153.265 251.705C152.946 251.705 152.679 251.787 152.466 251.951C152.255 252.113 152.097 252.333 151.99 252.612C151.886 252.889 151.834 253.2 151.834 253.545C151.834 253.895 151.887 254.212 151.993 254.498C152.102 254.781 152.262 255.007 152.473 255.175C152.686 255.342 152.95 255.425 153.265 255.425Z" fill="#848484"/>
<path d="M203.653 238.455V245H202.86V239.286H202.822L201.224 240.347V239.541L202.86 238.455H203.653ZM205.74 245L208.667 239.209V239.158H205.292V238.455H209.485V239.196L206.571 245H205.74ZM197.611 250.158V249.455H202.52V250.158H200.462V256H199.669V250.158H197.611ZM204.395 253.047V256H203.641V249.455H204.395V251.858H204.459C204.574 251.604 204.747 251.403 204.977 251.254C205.209 251.103 205.518 251.027 205.904 251.027C206.238 251.027 206.531 251.094 206.782 251.228C207.034 251.36 207.229 251.564 207.367 251.839C207.508 252.112 207.578 252.459 207.578 252.881V256H206.824V252.932C206.824 252.542 206.723 252.24 206.52 252.027C206.32 251.812 206.042 251.705 205.686 251.705C205.439 251.705 205.217 251.757 205.021 251.861C204.828 251.966 204.674 252.118 204.561 252.318C204.45 252.518 204.395 252.761 204.395 253.047ZM212.052 253.993V251.091H212.806V256H212.052V255.169H212.001C211.886 255.418 211.707 255.63 211.464 255.805C211.221 255.978 210.914 256.064 210.543 256.064C210.237 256.064 209.964 255.997 209.725 255.863C209.487 255.726 209.299 255.522 209.163 255.249C209.026 254.974 208.958 254.628 208.958 254.21V251.091H209.712V254.159C209.712 254.517 209.813 254.803 210.013 255.016C210.215 255.229 210.473 255.335 210.786 255.335C210.974 255.335 211.164 255.287 211.358 255.191C211.554 255.096 211.718 254.949 211.851 254.75C211.985 254.552 212.052 254.3 212.052 253.993Z" fill="#848484"/>
<path d="M257.395 238.455V245H256.602V239.286H256.564L254.966 240.347V239.541L256.602 238.455H257.395ZM261.374 245.089C260.935 245.089 260.547 245.012 260.211 244.856C259.876 244.699 259.615 244.482 259.428 244.207C259.24 243.93 259.147 243.615 259.149 243.261C259.147 242.984 259.202 242.729 259.312 242.494C259.423 242.258 259.575 242.061 259.766 241.903C259.96 241.743 260.176 241.642 260.415 241.599V241.561C260.102 241.48 259.853 241.304 259.667 241.034C259.482 240.761 259.39 240.451 259.392 240.104C259.39 239.771 259.474 239.474 259.645 239.212C259.815 238.95 260.05 238.743 260.348 238.592C260.648 238.441 260.99 238.365 261.374 238.365C261.753 238.365 262.092 238.441 262.39 238.592C262.689 238.743 262.923 238.95 263.093 239.212C263.266 239.474 263.353 239.771 263.355 240.104C263.353 240.451 263.258 240.761 263.071 241.034C262.886 241.304 262.64 241.48 262.333 241.561V241.599C262.569 241.642 262.782 241.743 262.972 241.903C263.162 242.061 263.313 242.258 263.426 242.494C263.539 242.729 263.596 242.984 263.598 243.261C263.596 243.615 263.5 243.93 263.311 244.207C263.123 244.482 262.862 244.699 262.528 244.856C262.195 245.012 261.811 245.089 261.374 245.089ZM261.374 244.386C261.67 244.386 261.926 244.338 262.141 244.243C262.356 244.147 262.522 244.011 262.64 243.837C262.757 243.662 262.816 243.457 262.819 243.223C262.816 242.976 262.752 242.757 262.627 242.568C262.501 242.378 262.33 242.229 262.112 242.12C261.897 242.012 261.651 241.957 261.374 241.957C261.095 241.957 260.845 242.012 260.626 242.12C260.409 242.229 260.237 242.378 260.111 242.568C259.988 242.757 259.927 242.976 259.929 243.223C259.927 243.457 259.984 243.662 260.099 243.837C260.216 244.011 260.383 244.147 260.6 244.243C260.818 244.338 261.076 244.386 261.374 244.386ZM261.374 241.28C261.608 241.28 261.816 241.233 261.997 241.139C262.18 241.045 262.324 240.914 262.429 240.746C262.533 240.578 262.586 240.381 262.588 240.155C262.586 239.933 262.534 239.74 262.432 239.576C262.33 239.41 262.188 239.282 262.007 239.193C261.826 239.101 261.615 239.055 261.374 239.055C261.129 239.055 260.915 239.101 260.732 239.193C260.548 239.282 260.407 239.41 260.306 239.576C260.206 239.74 260.157 239.933 260.159 240.155C260.157 240.381 260.207 240.578 260.31 240.746C260.414 240.914 260.558 241.045 260.741 241.139C260.924 241.233 261.135 241.28 261.374 241.28ZM254.717 256V249.455H258.641V250.158H255.509V252.369H258.347V253.072H255.509V256H254.717ZM259.844 256V251.091H260.572V251.832H260.624C260.713 251.589 260.875 251.392 261.109 251.241C261.344 251.09 261.608 251.014 261.902 251.014C261.957 251.014 262.027 251.015 262.11 251.017C262.193 251.02 262.256 251.023 262.298 251.027V251.794C262.273 251.788 262.214 251.778 262.123 251.765C262.033 251.75 261.938 251.743 261.838 251.743C261.599 251.743 261.386 251.793 261.199 251.893C261.014 251.991 260.867 252.127 260.758 252.302C260.651 252.475 260.598 252.672 260.598 252.893V256H259.844ZM263.192 256V251.091H263.947V256H263.192ZM263.576 250.273C263.429 250.273 263.302 250.223 263.196 250.123C263.091 250.022 263.039 249.902 263.039 249.761C263.039 249.621 263.091 249.5 263.196 249.4C263.302 249.3 263.429 249.25 263.576 249.25C263.723 249.25 263.849 249.3 263.953 249.4C264.06 249.5 264.113 249.621 264.113 249.761C264.113 249.902 264.06 250.022 263.953 250.123C263.849 250.223 263.723 250.273 263.576 250.273Z" fill="#848484"/>
<path d="M309.564 238.455V245H308.771V239.286H308.733L307.135 240.347V239.541L308.771 238.455H309.564ZM313.53 238.365C313.799 238.367 314.067 238.418 314.336 238.518C314.604 238.619 314.849 238.785 315.071 239.017C315.292 239.247 315.47 239.561 315.604 239.96C315.739 240.358 315.806 240.858 315.806 241.459C315.806 242.04 315.75 242.557 315.64 243.009C315.531 243.458 315.373 243.838 315.167 244.147C314.962 244.456 314.713 244.69 314.419 244.85C314.127 245.01 313.797 245.089 313.428 245.089C313.061 245.089 312.734 245.017 312.447 244.872C312.161 244.725 311.927 244.522 311.744 244.262C311.563 244 311.446 243.696 311.395 243.351H312.175C312.245 243.651 312.385 243.9 312.594 244.096C312.805 244.289 313.083 244.386 313.428 244.386C313.933 244.386 314.331 244.166 314.623 243.725C314.917 243.284 315.064 242.661 315.064 241.855H315.013C314.894 242.034 314.752 242.189 314.588 242.319C314.424 242.449 314.242 242.549 314.042 242.619C313.841 242.689 313.628 242.724 313.402 242.724C313.027 242.724 312.683 242.632 312.37 242.446C312.059 242.259 311.81 242.002 311.622 241.676C311.437 241.348 311.344 240.973 311.344 240.551C311.344 240.151 311.434 239.784 311.613 239.452C311.794 239.117 312.047 238.851 312.373 238.653C312.701 238.455 313.087 238.359 313.53 238.365ZM313.53 239.068C313.262 239.068 313.02 239.135 312.805 239.27C312.592 239.402 312.422 239.581 312.297 239.806C312.173 240.03 312.111 240.278 312.111 240.551C312.111 240.824 312.171 241.072 312.29 241.296C312.412 241.517 312.577 241.694 312.786 241.826C312.997 241.956 313.236 242.021 313.505 242.021C313.707 242.021 313.896 241.982 314.07 241.903C314.245 241.822 314.397 241.712 314.527 241.574C314.66 241.433 314.763 241.275 314.837 241.098C314.912 240.919 314.949 240.732 314.949 240.538C314.949 240.283 314.887 240.043 314.764 239.819C314.642 239.596 314.474 239.414 314.259 239.276C314.046 239.137 313.803 239.068 313.53 239.068ZM308.817 251.091C308.779 250.767 308.623 250.516 308.351 250.337C308.078 250.158 307.743 250.068 307.347 250.068C307.057 250.068 306.804 250.115 306.586 250.209C306.371 250.303 306.203 250.431 306.082 250.596C305.962 250.76 305.903 250.946 305.903 251.155C305.903 251.33 305.944 251.48 306.027 251.605C306.112 251.729 306.221 251.832 306.353 251.915C306.485 251.996 306.624 252.064 306.769 252.117C306.914 252.168 307.047 252.21 307.168 252.241L307.833 252.42C308.003 252.465 308.193 252.527 308.402 252.606C308.613 252.685 308.814 252.792 309.006 252.929C309.2 253.063 309.36 253.235 309.485 253.446C309.611 253.657 309.674 253.916 309.674 254.223C309.674 254.577 309.581 254.896 309.396 255.182C309.213 255.467 308.944 255.694 308.59 255.863C308.239 256.031 307.812 256.115 307.309 256.115C306.84 256.115 306.434 256.039 306.091 255.888C305.75 255.737 305.482 255.526 305.286 255.255C305.092 254.985 304.982 254.67 304.957 254.312H305.775C305.796 254.56 305.879 254.764 306.024 254.926C306.171 255.086 306.356 255.205 306.58 255.284C306.806 255.361 307.049 255.399 307.309 255.399C307.611 255.399 307.883 255.35 308.124 255.252C308.365 255.152 308.555 255.013 308.696 254.837C308.836 254.658 308.907 254.449 308.907 254.21C308.907 253.993 308.846 253.816 308.725 253.68C308.603 253.543 308.443 253.433 308.245 253.347C308.047 253.262 307.833 253.187 307.603 253.124L306.797 252.893C306.286 252.746 305.881 252.537 305.583 252.264C305.285 251.991 305.135 251.634 305.135 251.193C305.135 250.827 305.235 250.507 305.433 250.234C305.633 249.96 305.901 249.746 306.238 249.595C306.577 249.442 306.955 249.365 307.373 249.365C307.795 249.365 308.17 249.441 308.498 249.592C308.826 249.741 309.086 249.946 309.278 250.206C309.471 250.466 309.574 250.761 309.584 251.091H308.817ZM312.319 256.115C312.008 256.115 311.726 256.056 311.472 255.939C311.219 255.82 311.018 255.648 310.868 255.425C310.719 255.199 310.645 254.926 310.645 254.607C310.645 254.325 310.7 254.097 310.811 253.923C310.922 253.746 311.07 253.607 311.255 253.507C311.44 253.407 311.645 253.332 311.869 253.283C312.095 253.232 312.321 253.192 312.549 253.162C312.848 253.124 313.09 253.095 313.275 253.076C313.462 253.054 313.599 253.019 313.684 252.97C313.771 252.921 313.815 252.836 313.815 252.714V252.689C313.815 252.374 313.729 252.129 313.556 251.954C313.386 251.779 313.127 251.692 312.78 251.692C312.419 251.692 312.137 251.771 311.933 251.928C311.728 252.086 311.584 252.254 311.501 252.433L310.785 252.178C310.913 251.879 311.084 251.647 311.297 251.481C311.512 251.312 311.746 251.195 312 251.129C312.255 251.061 312.507 251.027 312.754 251.027C312.912 251.027 313.093 251.046 313.297 251.085C313.504 251.121 313.703 251.196 313.895 251.311C314.089 251.426 314.25 251.6 314.378 251.832C314.505 252.065 314.569 252.376 314.569 252.766V256H313.815V255.335H313.777C313.726 255.442 313.64 255.556 313.521 255.677C313.402 255.799 313.243 255.902 313.045 255.987C312.847 256.072 312.605 256.115 312.319 256.115ZM312.434 255.438C312.733 255.438 312.984 255.379 313.189 255.262C313.395 255.145 313.551 254.993 313.655 254.808C313.762 254.623 313.815 254.428 313.815 254.223V253.533C313.783 253.571 313.713 253.606 313.604 253.638C313.498 253.668 313.374 253.695 313.233 253.718C313.095 253.739 312.96 253.759 312.828 253.776C312.698 253.79 312.592 253.803 312.511 253.814C312.315 253.839 312.132 253.881 311.961 253.939C311.793 253.994 311.657 254.078 311.552 254.191C311.45 254.302 311.399 254.453 311.399 254.645C311.399 254.907 311.496 255.105 311.69 255.239C311.886 255.371 312.134 255.438 312.434 255.438ZM318.081 251.091V251.73H315.537V251.091H318.081ZM316.278 249.915H317.033V254.594C317.033 254.807 317.064 254.967 317.125 255.073C317.189 255.178 317.27 255.248 317.368 255.284C317.468 255.318 317.574 255.335 317.685 255.335C317.768 255.335 317.836 255.331 317.889 255.322C317.942 255.312 317.985 255.303 318.017 255.297L318.17 255.974C318.119 255.994 318.048 256.013 317.956 256.032C317.865 256.053 317.749 256.064 317.608 256.064C317.395 256.064 317.186 256.018 316.982 255.926C316.779 255.835 316.611 255.695 316.477 255.508C316.344 255.32 316.278 255.084 316.278 254.798V249.915Z" fill="#848484"/>
<path d="M362.89 245V244.425L365.051 242.06C365.304 241.783 365.513 241.542 365.677 241.337C365.841 241.131 365.963 240.937 366.041 240.756C366.122 240.572 366.163 240.381 366.163 240.18C366.163 239.95 366.108 239.751 365.997 239.583C365.888 239.414 365.739 239.284 365.549 239.193C365.36 239.101 365.147 239.055 364.91 239.055C364.659 239.055 364.439 239.108 364.252 239.212C364.066 239.314 363.923 239.458 363.82 239.643C363.72 239.829 363.67 240.046 363.67 240.295H362.916C362.916 239.912 363.004 239.575 363.181 239.286C363.358 238.996 363.599 238.77 363.903 238.608C364.21 238.446 364.554 238.365 364.936 238.365C365.319 238.365 365.659 238.446 365.955 238.608C366.251 238.77 366.484 238.988 366.652 239.263C366.82 239.538 366.904 239.844 366.904 240.18C366.904 240.421 366.861 240.657 366.773 240.887C366.688 241.115 366.539 241.369 366.326 241.651C366.115 241.93 365.822 242.271 365.447 242.673L363.977 244.246V244.297H367.019V245H362.89ZM370.474 245.089C369.993 245.089 369.583 244.958 369.244 244.696C368.905 244.432 368.646 244.05 368.467 243.549C368.288 243.046 368.199 242.439 368.199 241.727C368.199 241.02 368.288 240.416 368.467 239.915C368.648 239.412 368.908 239.029 369.247 238.765C369.588 238.498 369.997 238.365 370.474 238.365C370.952 238.365 371.36 238.498 371.698 238.765C372.039 239.029 372.299 239.412 372.478 239.915C372.659 240.416 372.75 241.02 372.75 241.727C372.75 242.439 372.66 243.046 372.481 243.549C372.302 244.05 372.044 244.432 371.705 244.696C371.366 244.958 370.956 245.089 370.474 245.089ZM370.474 244.386C370.952 244.386 371.322 244.156 371.587 243.696C371.851 243.236 371.983 242.58 371.983 241.727C371.983 241.161 371.922 240.678 371.801 240.279C371.681 239.881 371.509 239.577 371.283 239.369C371.059 239.16 370.79 239.055 370.474 239.055C370.001 239.055 369.632 239.289 369.365 239.755C369.099 240.22 368.966 240.877 368.966 241.727C368.966 242.294 369.025 242.776 369.145 243.172C369.264 243.568 369.436 243.87 369.659 244.076C369.885 244.283 370.157 244.386 370.474 244.386ZM364.005 251.091C363.967 250.767 363.811 250.516 363.539 250.337C363.266 250.158 362.931 250.068 362.535 250.068C362.245 250.068 361.992 250.115 361.774 250.209C361.559 250.303 361.391 250.431 361.269 250.596C361.15 250.76 361.09 250.946 361.09 251.155C361.09 251.33 361.132 251.48 361.215 251.605C361.3 251.729 361.409 251.832 361.541 251.915C361.673 251.996 361.812 252.064 361.957 252.117C362.101 252.168 362.235 252.21 362.356 252.241L363.021 252.42C363.191 252.465 363.381 252.527 363.59 252.606C363.801 252.685 364.002 252.792 364.194 252.929C364.388 253.063 364.547 253.235 364.673 253.446C364.799 253.657 364.862 253.916 364.862 254.223C364.862 254.577 364.769 254.896 364.584 255.182C364.4 255.467 364.132 255.694 363.778 255.863C363.427 256.031 363 256.115 362.497 256.115C362.028 256.115 361.622 256.039 361.279 255.888C360.938 255.737 360.67 255.526 360.474 255.255C360.28 254.985 360.17 254.67 360.144 254.312H360.963C360.984 254.56 361.067 254.764 361.212 254.926C361.359 255.086 361.544 255.205 361.768 255.284C361.994 255.361 362.237 255.399 362.497 255.399C362.799 255.399 363.071 255.35 363.312 255.252C363.552 255.152 363.743 255.013 363.884 254.837C364.024 254.658 364.095 254.449 364.095 254.21C364.095 253.993 364.034 253.816 363.913 253.68C363.791 253.543 363.631 253.433 363.433 253.347C363.235 253.262 363.021 253.187 362.791 253.124L361.985 252.893C361.474 252.746 361.069 252.537 360.771 252.264C360.473 251.991 360.323 251.634 360.323 251.193C360.323 250.827 360.422 250.507 360.621 250.234C360.821 249.96 361.089 249.746 361.426 249.595C361.765 249.442 362.143 249.365 362.561 249.365C362.982 249.365 363.357 249.441 363.686 249.592C364.014 249.741 364.274 249.946 364.465 250.206C364.659 250.466 364.762 250.761 364.772 251.091H364.005ZM369.156 253.993V251.091H369.911V256H369.156V255.169H369.105C368.99 255.418 368.811 255.63 368.568 255.805C368.325 255.978 368.019 256.064 367.648 256.064C367.341 256.064 367.068 255.997 366.83 255.863C366.591 255.726 366.404 255.522 366.267 255.249C366.131 254.974 366.063 254.628 366.063 254.21V251.091H366.817V254.159C366.817 254.517 366.917 254.803 367.117 255.016C367.32 255.229 367.578 255.335 367.891 255.335C368.078 255.335 368.269 255.287 368.463 255.191C368.659 255.096 368.823 254.949 368.955 254.75C369.089 254.552 369.156 254.3 369.156 253.993ZM372.046 253.047V256H371.292V251.091H372.021V251.858H372.085C372.2 251.609 372.375 251.408 372.609 251.257C372.843 251.104 373.146 251.027 373.517 251.027C373.849 251.027 374.14 251.095 374.389 251.232C374.638 251.366 374.832 251.57 374.971 251.845C375.109 252.118 375.179 252.463 375.179 252.881V256H374.424V252.932C374.424 252.546 374.324 252.246 374.124 252.031C373.924 251.813 373.649 251.705 373.299 251.705C373.058 251.705 372.843 251.757 372.654 251.861C372.466 251.966 372.318 252.118 372.209 252.318C372.101 252.518 372.046 252.761 372.046 253.047Z" fill="#848484"/>
<path d="M4.19668 214V213.425L6.3572 211.06C6.61075 210.783 6.81955 210.542 6.98362 210.337C7.14768 210.131 7.26913 209.937 7.34796 209.756C7.42893 209.572 7.46941 209.381 7.46941 209.18C7.46941 208.95 7.41401 208.751 7.30322 208.583C7.19455 208.414 7.04541 208.284 6.85577 208.193C6.66614 208.101 6.45308 208.055 6.21657 208.055C5.96515 208.055 5.74569 208.108 5.55819 208.212C5.37282 208.314 5.229 208.458 5.12673 208.643C5.02658 208.829 4.97651 209.046 4.97651 209.295H4.22225C4.22225 208.912 4.31068 208.575 4.48752 208.286C4.66437 207.996 4.90514 207.77 5.20982 207.608C5.51664 207.446 5.86075 207.365 6.24214 207.365C6.62566 207.365 6.9655 207.446 7.26167 207.608C7.55783 207.77 7.79008 207.988 7.9584 208.263C8.12673 208.538 8.21089 208.844 8.21089 209.18C8.21089 209.421 8.16721 209.657 8.07985 209.887C7.99462 210.115 7.84548 210.369 7.63241 210.651C7.42147 210.93 7.1285 211.271 6.7535 211.673L5.28333 213.246V213.297H8.32595V214H4.19668ZM10.4191 212.21L10.4063 211.277H10.5597L12.7074 209.091H13.6407L11.3523 211.405H11.2884L10.4191 212.21ZM9.71596 214V207.455H10.4702V214H9.71596ZM12.8353 214L10.9177 211.571L11.4546 211.047L13.7941 214H12.8353Z" fill="#BAB9C1"/>
<path d="M3.71808 161.658V161.006L6.5945 156.455H7.06751V157.464H6.74791L4.57461 160.903V160.955H8.44819V161.658H3.71808ZM6.79905 163V161.46V161.156V156.455H7.55331V163H6.79905ZM10.4191 161.21L10.4063 160.277H10.5597L12.7074 158.091H13.6407L11.3523 160.405H11.2884L10.4191 161.21ZM9.71596 163V156.455H10.4702V163H9.71596ZM12.8353 163L10.9177 160.571L11.4546 160.047L13.7941 163H12.8353Z" fill="#BAB9C1"/>
<path d="M6.20299 113.089C5.93452 113.085 5.66606 113.034 5.39759 112.936C5.12912 112.838 4.8841 112.673 4.6625 112.441C4.44091 112.206 4.263 111.89 4.12877 111.491C3.99454 111.091 3.92742 110.588 3.92742 109.983C3.92742 109.403 3.98175 108.89 4.09042 108.442C4.19908 107.993 4.35675 107.615 4.56343 107.308C4.7701 106.999 5.01939 106.765 5.3113 106.605C5.60533 106.445 5.93665 106.365 6.30526 106.365C6.67174 106.365 6.99773 106.439 7.28324 106.586C7.57088 106.73 7.80526 106.933 7.98637 107.193C8.16748 107.453 8.28466 107.752 8.33793 108.091H7.5581C7.48566 107.797 7.34503 107.553 7.13623 107.359C6.92742 107.165 6.65043 107.068 6.30526 107.068C5.79816 107.068 5.39865 107.289 5.10675 107.73C4.81698 108.171 4.67103 108.79 4.6689 109.587H4.72003C4.83935 109.406 4.98104 109.251 5.1451 109.123C5.3113 108.993 5.49454 108.893 5.69482 108.823C5.8951 108.752 6.10711 108.717 6.33083 108.717C6.70583 108.717 7.04887 108.811 7.35995 108.999C7.67103 109.184 7.92032 109.441 8.10782 109.769C8.29532 110.095 8.38907 110.469 8.38907 110.891C8.38907 111.295 8.29851 111.666 8.1174 112.003C7.9363 112.337 7.68168 112.604 7.35356 112.802C7.02756 112.998 6.64404 113.094 6.20299 113.089ZM6.20299 112.386C6.47145 112.386 6.71222 112.319 6.92529 112.185C7.14049 112.051 7.30988 111.871 7.43346 111.645C7.55917 111.419 7.62202 111.168 7.62202 110.891C7.62202 110.62 7.5613 110.374 7.43985 110.152C7.32053 109.929 7.1554 109.751 6.94446 109.619C6.73566 109.487 6.49702 109.42 6.22856 109.42C6.02614 109.42 5.83758 109.461 5.66286 109.542C5.48814 109.621 5.33473 109.729 5.20263 109.868C5.07266 110.006 4.97039 110.165 4.89581 110.344C4.82124 110.521 4.78395 110.707 4.78395 110.903C4.78395 111.163 4.84468 111.406 4.96613 111.632C5.08971 111.858 5.25803 112.04 5.4711 112.179C5.6863 112.317 5.93026 112.386 6.20299 112.386ZM10.4191 111.21L10.4063 110.277H10.5597L12.7074 108.091H13.6407L11.3523 110.405H11.2884L10.4191 111.21ZM9.71596 113V106.455H10.4702V113H9.71596ZM12.8353 113L10.9177 110.571L11.4546 110.047L13.7941 113H12.8353Z" fill="#BAB9C1"/>
<path d="M6.1966 62.0895C5.75767 62.0895 5.36989 62.0117 5.03324 61.8562C4.69873 61.6985 4.43772 61.4822 4.25022 61.2074C4.06272 60.9304 3.97003 60.6151 3.97216 60.2614C3.97003 59.9844 4.02436 59.7287 4.13516 59.4943C4.24596 59.2578 4.39723 59.0607 4.589 58.9031C4.78289 58.7433 4.99915 58.642 5.23779 58.5994V58.5611C4.92458 58.4801 4.67529 58.3043 4.48992 58.0337C4.30455 57.761 4.21293 57.451 4.21506 57.1037C4.21293 56.7713 4.29709 56.4741 4.46755 56.212C4.638 55.9499 4.87238 55.7433 5.17067 55.592C5.4711 55.4407 5.81307 55.3651 6.1966 55.3651C6.57586 55.3651 6.91463 55.4407 7.21293 55.592C7.51123 55.7433 7.7456 55.9499 7.91606 56.212C8.08864 56.4741 8.176 56.7713 8.17813 57.1037C8.176 57.451 8.08118 57.761 7.89368 58.0337C7.70831 58.3043 7.46222 58.4801 7.1554 58.5611V58.5994C7.39191 58.642 7.60498 58.7433 7.79461 58.9031C7.98424 59.0607 8.13552 59.2578 8.24844 59.4943C8.36137 59.7287 8.4189 59.9844 8.42103 60.2614C8.4189 60.6151 8.32302 60.9304 8.13338 61.2074C7.94588 61.4822 7.68488 61.6985 7.35036 61.8562C7.01797 62.0117 6.63338 62.0895 6.1966 62.0895ZM6.1966 61.3864C6.49276 61.3864 6.74844 61.3384 6.96364 61.2425C7.17884 61.1467 7.34503 61.0114 7.46222 60.8366C7.57941 60.6619 7.63907 60.4574 7.6412 60.223C7.63907 59.9759 7.57515 59.7575 7.44944 59.5678C7.32373 59.3782 7.15221 59.229 6.93488 59.1204C6.71968 59.0117 6.47358 58.9574 6.1966 58.9574C5.91748 58.9574 5.66819 59.0117 5.44873 59.1204C5.2314 59.229 5.05988 59.3782 4.93417 59.5678C4.81059 59.7575 4.74986 59.9759 4.75199 60.223C4.74986 60.4574 4.80633 60.6619 4.92138 60.8366C5.03857 61.0114 5.20583 61.1467 5.42316 61.2425C5.64049 61.3384 5.8983 61.3864 6.1966 61.3864ZM6.1966 58.2798C6.43097 58.2798 6.63871 58.233 6.81982 58.1392C7.00306 58.0455 7.14688 57.9144 7.25128 57.7461C7.35569 57.5778 7.40895 57.3807 7.41108 57.1548C7.40895 56.9332 7.35675 56.7404 7.25448 56.5763C7.15221 56.4102 7.01052 56.2823 6.82941 56.1928C6.6483 56.1012 6.43736 56.0554 6.1966 56.0554C5.95157 56.0554 5.73743 56.1012 5.55419 56.1928C5.37096 56.2823 5.22927 56.4102 5.12912 56.5763C5.02898 56.7404 4.97998 56.9332 4.98211 57.1548C4.97998 57.3807 5.03005 57.5778 5.13232 57.7461C5.23672 57.9144 5.38054 58.0455 5.56378 58.1392C5.74702 58.233 5.95796 58.2798 6.1966 58.2798ZM10.4191 60.2102L10.4063 59.277H10.5597L12.7074 57.0909H13.6407L11.3523 59.4048H11.2884L10.4191 60.2102ZM9.71596 62V55.4545H10.4702V62H9.71596ZM12.8353 62L10.9177 59.571L11.4546 59.0469L13.7941 62H12.8353Z" fill="#BAB9C1"/>
<path opacity="0.05" d="M70.0061 64.5C44.5526 64.5 45.3605 129.794 19.0991 129.794V227H379V187.125C367.063 187.125 352.067 124.449 326.613 124.449C300.568 124.449 299.976 74.2508 274.522 74.2508C248.477 74.2508 249.957 109.887 224.503 109.887C199.05 109.887 198.458 171.036 172.412 171.036C146.959 171.036 147.551 117.85 121.505 117.85C96.0516 117.85 96.0516 64.5 70.0061 64.5Z" fill="url(#paint0_linear_693_1249)"/>
<path d="M19.0991 129.794C45.3605 129.794 44.5526 64.5 70.0061 64.5C96.0516 64.5 96.0516 117.85 121.505 117.85C147.551 117.85 146.959 171.036 172.412 171.036C198.458 171.036 199.05 109.887 224.503 109.887C249.957 109.887 248.477 74.2508 274.522 74.2508C299.976 74.2508 300.568 124.449 326.613 124.449C352.067 124.449 367.063 187.125 379 187.125" stroke="#091425" stroke-width="1.76205"/>
<path d="M211.578 125.993C211.578 130.157 208.202 133.533 204.038 133.533C199.873 133.533 196.497 130.157 196.497 125.993C196.497 121.829 199.873 118.453 204.038 118.453C208.202 118.453 211.578 121.829 211.578 125.993Z" fill="white" stroke="#18CD02" stroke-width="6.05942"/>
<path d="M32.737 126.098C32.737 127.551 31.3 129.022 29.1369 129.022C26.9738 129.022 25.5368 127.551 25.5368 126.098C25.5368 124.646 26.9738 123.175 29.1369 123.175C31.3 123.175 32.737 124.646 32.737 126.098Z" fill="white" stroke="#091425" stroke-width="2.34941"/>
<g filter="url(#filter0_b_693_1249)">
<rect x="162.413" y="142" width="107.889" height="41.6897" rx="4" fill="#D8D8D8" fill-opacity="0.4"/>
</g>
<path d="M184.731 166.078V166.989H175.438V166.078H184.731ZM184.731 168.046V168.957H175.438V168.046H184.731ZM183.852 162.671V172H182.554L177.812 165.158H177.73V172H176.317V162.671H177.625L182.367 169.522H182.453V162.671H183.852ZM189.123 162.671V172H187.711V164.083H187.656L185.424 165.541V164.192L187.752 162.671H189.123ZM194.416 172.128C193.845 172.128 193.332 172.018 192.877 171.8C192.424 171.578 192.063 171.274 191.792 170.889C191.522 170.503 191.378 170.063 191.36 169.567H192.726C192.76 169.968 192.937 170.298 193.259 170.556C193.581 170.814 193.967 170.943 194.416 170.943C194.775 170.943 195.092 170.861 195.368 170.697C195.648 170.53 195.866 170.301 196.024 170.009C196.185 169.718 196.266 169.385 196.266 169.012C196.266 168.632 196.184 168.294 196.02 167.996C195.856 167.698 195.629 167.464 195.341 167.294C195.055 167.124 194.727 167.038 194.357 167.035C194.075 167.035 193.791 167.083 193.505 167.181C193.22 167.278 192.989 167.405 192.813 167.563L191.524 167.372L192.047 162.671H197.177V163.878H193.218L192.922 166.488H192.977C193.159 166.312 193.4 166.165 193.701 166.046C194.005 165.928 194.33 165.869 194.676 165.869C195.244 165.869 195.749 166.004 196.193 166.274C196.639 166.544 196.99 166.913 197.245 167.381C197.503 167.846 197.631 168.38 197.628 168.984C197.631 169.589 197.494 170.128 197.218 170.602C196.944 171.075 196.565 171.449 196.079 171.722C195.596 171.992 195.042 172.128 194.416 172.128ZM200.434 170.725L200.366 171.221C200.32 171.585 200.243 171.965 200.133 172.36C200.027 172.758 199.916 173.127 199.801 173.467C199.689 173.807 199.596 174.077 199.523 174.278H198.557C198.597 174.089 198.651 173.834 198.721 173.512C198.791 173.193 198.859 172.837 198.926 172.442C198.993 172.047 199.043 171.645 199.077 171.235L199.122 170.725H200.434ZM205.019 162.543C205.435 162.546 205.845 162.622 206.249 162.771C206.653 162.92 207.018 163.163 207.343 163.5C207.67 163.837 207.932 164.293 208.126 164.866C208.323 165.437 208.424 166.148 208.427 166.998C208.427 167.815 208.345 168.543 208.181 169.18C208.017 169.815 207.781 170.351 207.475 170.788C207.171 171.226 206.802 171.558 206.368 171.786C205.933 172.014 205.444 172.128 204.901 172.128C204.345 172.128 203.852 172.018 203.42 171.8C202.989 171.581 202.638 171.279 202.368 170.893C202.098 170.504 201.929 170.058 201.863 169.554H203.252C203.343 169.955 203.528 170.28 203.808 170.529C204.09 170.775 204.454 170.898 204.901 170.898C205.584 170.898 206.117 170.6 206.5 170.005C206.882 169.407 207.075 168.571 207.078 167.499H207.005C206.848 167.761 206.65 167.985 206.413 168.174C206.179 168.362 205.917 168.508 205.625 168.611C205.334 168.714 205.022 168.766 204.691 168.766C204.154 168.766 203.665 168.634 203.225 168.369C202.784 168.105 202.433 167.742 202.172 167.281C201.911 166.819 201.781 166.292 201.781 165.7C201.781 165.111 201.914 164.576 202.181 164.097C202.452 163.617 202.828 163.237 203.311 162.958C203.797 162.675 204.366 162.537 205.019 162.543ZM205.024 163.728C204.669 163.728 204.348 163.816 204.063 163.992C203.78 164.165 203.557 164.4 203.393 164.698C203.229 164.993 203.147 165.32 203.147 165.682C203.147 166.043 203.226 166.371 203.384 166.666C203.545 166.957 203.764 167.19 204.04 167.363C204.319 167.533 204.638 167.618 204.997 167.618C205.264 167.618 205.513 167.566 205.744 167.463C205.974 167.36 206.176 167.217 206.349 167.035C206.523 166.85 206.658 166.64 206.755 166.406C206.852 166.172 206.901 165.926 206.901 165.668C206.901 165.325 206.819 165.006 206.655 164.712C206.494 164.417 206.272 164.18 205.99 164.001C205.707 163.819 205.385 163.728 205.024 163.728ZM212.915 172.128C212.262 172.128 211.685 172.015 211.184 171.79C210.686 171.566 210.296 171.256 210.013 170.861C209.731 170.466 209.591 170.017 209.594 169.513C209.591 169.118 209.672 168.755 209.836 168.424C210.003 168.09 210.229 167.812 210.514 167.591C210.8 167.366 211.119 167.223 211.471 167.162V167.108C211.006 166.995 210.634 166.746 210.355 166.361C210.076 165.975 209.937 165.532 209.941 165.03C209.937 164.554 210.064 164.129 210.319 163.755C210.577 163.378 210.931 163.082 211.38 162.867C211.829 162.651 212.341 162.543 212.915 162.543C213.483 162.543 213.99 162.653 214.437 162.871C214.886 163.087 215.24 163.383 215.498 163.76C215.756 164.133 215.887 164.557 215.89 165.03C215.887 165.532 215.744 165.975 215.462 166.361C215.179 166.746 214.812 166.995 214.359 167.108V167.162C214.708 167.223 215.023 167.366 215.302 167.591C215.584 167.812 215.809 168.09 215.976 168.424C216.146 168.755 216.233 169.118 216.236 169.513C216.233 170.017 216.09 170.466 215.808 170.861C215.525 171.256 215.134 171.566 214.632 171.79C214.134 172.015 213.562 172.128 212.915 172.128ZM212.915 170.975C213.301 170.975 213.635 170.911 213.917 170.784C214.2 170.653 214.418 170.472 214.573 170.242C214.728 170.008 214.807 169.735 214.81 169.422C214.807 169.097 214.722 168.81 214.555 168.561C214.391 168.312 214.168 168.116 213.885 167.973C213.603 167.83 213.28 167.759 212.915 167.759C212.548 167.759 212.221 167.83 211.936 167.973C211.65 168.116 211.426 168.312 211.262 168.561C211.098 168.81 211.017 169.097 211.02 169.422C211.017 169.735 211.091 170.008 211.243 170.242C211.398 170.472 211.618 170.653 211.904 170.784C212.189 170.911 212.526 170.975 212.915 170.975ZM212.915 166.634C213.225 166.634 213.5 166.572 213.74 166.447C213.98 166.323 214.168 166.15 214.304 165.928C214.444 165.706 214.516 165.447 214.519 165.149C214.516 164.857 214.446 164.602 214.309 164.384C214.175 164.165 213.989 163.996 213.749 163.878C213.509 163.757 213.231 163.696 212.915 163.696C212.593 163.696 212.311 163.757 212.068 163.878C211.828 163.996 211.641 164.165 211.508 164.384C211.374 164.602 211.309 164.857 211.312 165.149C211.309 165.447 211.375 165.706 211.512 165.928C211.649 166.15 211.837 166.323 212.077 166.447C212.32 166.572 212.599 166.634 212.915 166.634ZM220.806 172.155C220.087 172.152 219.472 171.962 218.961 171.585C218.451 171.209 218.061 170.661 217.791 169.941C217.52 169.221 217.385 168.354 217.385 167.34C217.385 166.329 217.52 165.465 217.791 164.748C218.064 164.031 218.456 163.485 218.966 163.108C219.479 162.732 220.093 162.543 220.806 162.543C221.52 162.543 222.132 162.733 222.642 163.113C223.152 163.489 223.543 164.036 223.813 164.753C224.086 165.466 224.223 166.329 224.223 167.34C224.223 168.357 224.088 169.226 223.817 169.946C223.547 170.662 223.157 171.21 222.647 171.59C222.136 171.967 221.523 172.155 220.806 172.155ZM220.806 170.939C221.438 170.939 221.931 170.63 222.287 170.014C222.645 169.397 222.824 168.506 222.824 167.34C222.824 166.566 222.742 165.911 222.578 165.377C222.417 164.839 222.185 164.432 221.881 164.156C221.581 163.876 221.222 163.737 220.806 163.737C220.178 163.737 219.684 164.047 219.326 164.666C218.968 165.286 218.787 166.177 218.784 167.34C218.784 168.117 218.864 168.775 219.025 169.312C219.189 169.847 219.422 170.252 219.722 170.529C220.023 170.802 220.384 170.939 220.806 170.939Z" fill="#262628"/>
<path opacity="0.6" d="M175.821 151.875V151.249H180.194V151.875H178.361V157.079H177.655V151.875H175.821ZM181.916 154.449V157.079H181.244V151.249H181.916V153.39H181.973C182.075 153.164 182.229 152.984 182.434 152.852C182.641 152.717 182.916 152.649 183.26 152.649C183.558 152.649 183.819 152.709 184.043 152.829C184.267 152.946 184.44 153.128 184.564 153.373C184.689 153.615 184.751 153.925 184.751 154.301V157.079H184.08V154.346C184.08 153.999 183.989 153.73 183.809 153.54C183.631 153.349 183.383 153.253 183.066 153.253C182.846 153.253 182.648 153.299 182.474 153.392C182.301 153.485 182.164 153.621 182.064 153.8C181.965 153.978 181.916 154.194 181.916 154.449ZM188.788 155.291V152.706H189.46V157.079H188.788V156.339H188.742C188.64 156.561 188.48 156.75 188.264 156.906C188.047 157.059 187.774 157.136 187.444 157.136C187.171 157.136 186.928 157.076 186.715 156.957C186.502 156.835 186.335 156.653 186.214 156.41C186.092 156.165 186.032 155.857 186.032 155.485V152.706H186.704V155.439C186.704 155.758 186.793 156.013 186.971 156.202C187.152 156.392 187.381 156.487 187.66 156.487C187.827 156.487 187.997 156.444 188.17 156.359C188.344 156.274 188.491 156.143 188.608 155.966C188.728 155.79 188.788 155.565 188.788 155.291ZM195.086 151.249V157.079H194.379V151.989H194.345L192.922 152.934V152.217L194.379 151.249H195.086ZM196.996 157.079L199.604 151.921V151.875H196.597V151.249H200.332V151.909L197.736 157.079H196.996ZM205.652 157.079H203.853V151.249H205.732C206.298 151.249 206.782 151.365 207.184 151.599C207.586 151.83 207.895 152.163 208.109 152.598C208.324 153.031 208.431 153.549 208.431 154.153C208.431 154.76 208.323 155.283 208.106 155.721C207.89 156.158 207.575 156.494 207.161 156.729C206.747 156.963 206.244 157.079 205.652 157.079ZM204.559 156.453H205.607C206.089 156.453 206.488 156.36 206.805 156.174C207.122 155.988 207.359 155.723 207.514 155.38C207.67 155.036 207.748 154.627 207.748 154.153C207.748 153.682 207.671 153.277 207.517 152.937C207.363 152.595 207.134 152.333 206.828 152.151C206.523 151.967 206.142 151.875 205.686 151.875H204.559V156.453ZM211.409 157.17C210.987 157.17 210.624 157.077 210.318 156.891C210.015 156.704 209.78 156.442 209.615 156.106C209.452 155.768 209.37 155.375 209.37 154.927C209.37 154.479 209.452 154.084 209.615 153.743C209.78 153.399 210.01 153.131 210.304 152.94C210.6 152.746 210.946 152.649 211.34 152.649C211.568 152.649 211.793 152.687 212.015 152.763C212.237 152.839 212.439 152.963 212.622 153.133C212.804 153.302 212.949 153.526 213.057 153.805C213.165 154.084 213.219 154.428 213.219 154.836V155.121H209.849V154.54H212.536C212.536 154.293 212.487 154.073 212.388 153.879C212.291 153.686 212.153 153.533 211.972 153.421C211.794 153.309 211.583 153.253 211.34 153.253C211.073 153.253 210.841 153.319 210.646 153.452C210.452 153.583 210.303 153.754 210.199 153.965C210.094 154.175 210.042 154.401 210.042 154.642V155.029C210.042 155.36 210.099 155.64 210.213 155.869C210.329 156.097 210.489 156.271 210.694 156.39C210.899 156.508 211.137 156.567 211.409 156.567C211.585 156.567 211.745 156.542 211.887 156.493C212.031 156.442 212.156 156.366 212.26 156.265C212.364 156.163 212.445 156.035 212.502 155.884L213.151 156.066C213.083 156.286 212.968 156.48 212.807 156.647C212.645 156.812 212.446 156.941 212.209 157.034C211.972 157.125 211.705 157.17 211.409 157.17ZM216.069 157.17C215.659 157.17 215.306 157.074 215.01 156.88C214.714 156.686 214.486 156.42 214.327 156.08C214.167 155.74 214.088 155.352 214.088 154.916C214.088 154.471 214.169 154.08 214.332 153.74C214.498 153.398 214.727 153.131 215.021 152.94C215.318 152.746 215.663 152.649 216.058 152.649C216.365 152.649 216.642 152.706 216.889 152.82C217.136 152.934 217.338 153.094 217.496 153.298C217.653 153.503 217.751 153.743 217.789 154.016H217.117C217.066 153.817 216.952 153.64 216.775 153.486C216.601 153.331 216.365 153.253 216.069 153.253C215.807 153.253 215.578 153.321 215.38 153.458C215.185 153.593 215.032 153.783 214.922 154.03C214.814 154.275 214.76 154.563 214.76 154.893C214.76 155.231 214.813 155.525 214.919 155.775C215.027 156.026 215.179 156.22 215.374 156.359C215.572 156.498 215.803 156.567 216.069 156.567C216.244 156.567 216.402 156.537 216.545 156.476C216.687 156.415 216.807 156.328 216.906 156.214C217.005 156.1 217.075 155.963 217.117 155.804H217.789C217.751 156.062 217.657 156.295 217.507 156.501C217.359 156.706 217.162 156.87 216.918 156.991C216.675 157.111 216.392 157.17 216.069 157.17Z" fill="#262628"/>
<defs>
<filter id="filter0_b_693_1249" x="152.792" y="132.379" width="127.13" height="60.9311" filterUnits="userSpaceOnUse" color-interpolation-filters="sRGB">
<feFlood flood-opacity="0" result="BackgroundImageFix"/>
<feGaussianBlur in="BackgroundImageFix" stdDeviation="4.81034"/>
<feComposite in2="SourceAlpha" operator="in" result="effect1_backgroundBlur_693_1249"/>
<feBlend mode="normal" in="SourceGraphic" in2="effect1_backgroundBlur_693_1249" result="shape"/>
</filter>
<linearGradient id="paint0_linear_693_1249" x1="199.05" y1="64.5" x2="199.05" y2="227" gradientUnits="userSpaceOnUse">
<stop stop-color="#091425"/>
<stop offset="1" stop-color="#091425" stop-opacity="0"/>
</linearGradient>
</defs>
</svg>
