<svg width="9" height="76" viewBox="0 0 9 76" fill="none" xmlns="http://www.w3.org/2000/svg">
<path d="M4.17542 10.8561C3.42201 10.2065 2.72368 9.49429 2.08771 8.72697C1.13333 7.57464 5.27094e-07 5.85852 5.27094e-07 4.2232C-0.00084539 2.51525 1.01656 0.975104 2.57747 0.321462C4.13837 -0.33218 5.9351 0.0295183 7.12923 1.23777C7.91448 2.02806 8.35436 3.10307 8.35086 4.2232C8.35086 5.85852 7.21751 7.57464 6.26313 8.72697C5.62716 9.49429 4.92882 10.2065 4.17542 10.8561ZM4.17542 2.41422C3.5361 2.41422 2.94535 2.75901 2.6257 3.31871C2.30604 3.87841 2.30604 4.56799 2.6257 5.12769C2.94535 5.68739 3.5361 6.03218 4.17542 6.03218C5.16371 6.03218 5.96488 5.22227 5.96488 4.2232C5.96488 3.22413 5.16371 2.41422 4.17542 2.41422Z" fill="#DE4B65"/>
<circle opacity="0.5" cx="4.17544" cy="71.8173" r="3.34035" stroke="#28B877" stroke-width="1.67018"/>
<circle cx="4.17542" cy="18.3717" r="1.67018" fill="#28B877"/>
<circle cx="4.17542" cy="26.7228" r="1.67018" fill="#28B877"/>
<circle cx="4.17542" cy="35.0737" r="1.67018" fill="#28B877"/>
<circle cx="4.17542" cy="43.4243" r="1.67018" fill="#28B877"/>
<circle cx="4.17542" cy="51.7753" r="1.67018" fill="#C4C4C4"/>
<circle cx="4.17542" cy="60.1262" r="1.67018" fill="#C4C4C4"/>
<circle cx="4.17544" cy="43.4243" r="3.34035" fill="white" stroke="#28B877" stroke-width="1.67018"/>
</svg>
