<svg width="22" height="15" viewBox="0 0 22 15" fill="none" xmlns="http://www.w3.org/2000/svg">
<path d="M15.6106 7.96131L15.7756 8.20742L16.0456 8.08523C16.4678 7.89412 16.9673 7.78189 17.4237 7.78189C19.2795 7.78189 20.7896 9.29204 20.7896 11.1478C20.7896 13.0036 19.2795 14.5138 17.4237 14.5138C15.5842 14.5138 14.0577 12.9561 14.0577 11.1478C14.0577 10.2512 14.4333 9.3582 15.1152 8.71183L15.3297 8.50843L15.1651 8.26289L14.6404 7.48047L14.4112 7.13865L14.1106 7.41982C13.2571 8.21828 12.6241 9.26746 12.3805 10.4852L12.3805 10.4853L12.2928 10.9237L12.2927 10.924C12.1645 11.5676 11.5928 12.0365 10.9359 12.0365H7.21038H6.96325L6.88056 12.2694C6.41062 13.5928 5.14907 14.5138 3.71595 14.5138C1.86015 14.5138 0.35 13.0036 0.35 11.1478C0.35 9.33006 1.80286 7.8512 3.61 7.7936L4.23942 7.77354L3.89005 7.24961L3.04368 5.98033L2.95321 5.84465L2.79113 5.82664C1.42036 5.67434 0.35 4.50737 0.35 3.09662C0.35 2.9476 0.470303 2.8273 0.619324 2.8273H3.73894C4.20254 2.8273 4.63271 3.05731 4.89011 3.44368L4.89017 3.44377L5.20103 3.91008L5.30493 4.06595H5.49225H10.6925H10.8798L10.9837 3.9101L11.6257 2.94726L11.6257 2.94723C11.6756 2.87229 11.7598 2.8273 11.8497 2.8273H13.7077H14.0577V2.4773V1.23865V0.888649H13.7077H13.0884C12.9394 0.888649 12.8191 0.768346 12.8191 0.619324C12.8191 0.470302 12.9394 0.35 13.0884 0.35H14.327C16.524 0.35 18.3123 2.13835 18.3123 4.33527V5.57392C18.3123 5.72294 18.192 5.84324 18.043 5.84324C17.0022 5.84324 16.0154 6.12629 15.1609 6.62088L14.8373 6.8082L15.0456 7.11873L15.6106 7.96131ZM6.15944 12.5584L6.46563 12.0324H5.85695H3.71595C3.22361 12.0324 2.8273 11.6371 2.8273 11.1478C2.8273 10.657 3.22514 10.2592 3.71595 10.2592H6.17025V9.90919V9.55919C5.70665 9.55919 5.27648 9.32918 5.01908 8.9428L5.01902 8.94271L4.80258 8.61806L4.73675 8.51931L4.62443 8.48097C4.34143 8.38436 4.03793 8.32054 3.71595 8.32054C2.15638 8.32054 0.888649 9.58827 0.888649 11.1478C0.888649 12.7074 2.15638 13.9751 3.71595 13.9751C4.74632 13.9751 5.66552 13.407 6.15944 12.5584ZM15.8728 9.31817L15.6205 8.942L15.3201 9.28099C14.8281 9.83624 14.5964 10.4899 14.5964 11.1478C14.5964 12.6922 15.8892 13.9751 17.4237 13.9751C18.9832 13.9751 20.251 12.7074 20.251 11.1478C20.251 9.58827 18.9832 8.32054 17.4237 8.32054C17.0572 8.32054 16.8172 8.37978 16.4943 8.49278L16.0671 8.64224L16.3192 9.01809L17.6471 10.9981L17.6472 10.9983C17.7298 11.1213 17.6971 11.2884 17.5735 11.3712L17.5727 11.3718C17.4502 11.4543 17.2823 11.4206 17.2006 11.2982L17.2002 11.2977L15.8728 9.31817Z" stroke="#006970" stroke-width="0.7"/>
</svg>
