<svg width="158" height="158" viewBox="0 0 158 158" fill="none" xmlns="http://www.w3.org/2000/svg">
<circle cx="79" cy="78.8374" r="78.8374" fill="#FFFDEF"/>
<circle cx="78.343" cy="79.4945" r="66.3548" fill="#FFF9D8"/>
<g clip-path="url(#clip0_286_1695)">
<path fill-rule="evenodd" clip-rule="evenodd" d="M27.7559 78.8376C27.7559 65.2467 33.1548 52.2125 42.765 42.6024C52.3752 32.9922 65.4094 27.5933 79.0002 27.5933C92.591 27.5933 105.625 32.9922 115.235 42.6024C124.846 52.2125 130.245 65.2467 130.245 78.8376C130.245 92.4284 124.846 105.463 115.235 115.073C105.625 124.683 92.591 130.082 79.0002 130.082C65.4094 130.082 52.3752 124.683 42.765 115.073C33.1548 105.463 27.7559 92.4284 27.7559 78.8376ZM76.0759 100.77L105.579 63.8879L100.249 59.6244L75.092 91.061L57.2726 76.2139L52.8998 81.4613L76.0759 100.77Z" fill="#FCDA1F"/>
<rect width="60" height="60" transform="translate(49.1626 49)" fill="#FCDA1F"/>
<path d="M91.6626 79C84.7626 79 79.1626 84.6 79.1626 91.5C79.1626 98.4 84.7626 104 91.6626 104C98.5626 104 104.163 98.4 104.163 91.5C104.163 84.6 98.5626 79 91.6626 79ZM95.7876 97.375L90.4126 92V84H92.9126V90.975L97.5376 95.6L95.7876 97.375ZM94.1626 56.5H86.2126C85.1626 53.6 82.4126 51.5 79.1626 51.5C75.9126 51.5 73.1626 53.6 72.1126 56.5H64.1626C61.4126 56.5 59.1626 58.75 59.1626 61.5V99C59.1626 101.75 61.4126 104 64.1626 104H79.4376C77.9567 102.566 76.7532 100.871 75.8876 99H64.1626V61.5H69.1626V69H89.1626V61.5H94.1626V74.2C95.9376 74.45 97.6126 74.975 99.1626 75.7V61.5C99.1626 58.75 96.9126 56.5 94.1626 56.5ZM79.1626 61.5C77.7876 61.5 76.6626 60.375 76.6626 59C76.6626 57.625 77.7876 56.5 79.1626 56.5C80.5376 56.5 81.6626 57.625 81.6626 59C81.6626 60.375 80.5376 61.5 79.1626 61.5Z" fill="white"/>
</g>
<defs>
<clipPath id="clip0_286_1695">
<rect width="102.489" height="102.489" fill="white" transform="translate(27.7559 27.5933)"/>
</clipPath>
</defs>
</svg>
